<svg xmlns="http://www.w3.org/2000/svg" width="1058.871" height="25.268" viewBox="0 0 1058.871 25.268">
  <g id="group-35" transform="translate(-1843 -3358)">
    <path id="e9b1" d="M58.506-23.91V1.358H84.792V-23.91Zm20.52,19.5a13.063,13.063,0,0,1-6.359,1.526,9.6,9.6,0,0,1-4.918-1.187,9.765,9.765,0,0,1-3.307-3.137A10.078,10.078,0,0,1,63.255-11.7a8.523,8.523,0,0,1,2.756-6.487,9.377,9.377,0,0,1,6.656-2.586,15.556,15.556,0,0,1,6.19,1.441l-.085,2.713A11.763,11.763,0,0,0,72.836-18.4a7,7,0,0,0-5.045,1.908A6.257,6.257,0,0,0,65.8-11.785a6.2,6.2,0,0,0,2.035,4.706,7.04,7.04,0,0,0,5,1.908,11.388,11.388,0,0,0,6.19-1.95ZM29.338,1.358h26.2V-23.91h-26.2Zm8.055-21.452h4.494a8.013,8.013,0,0,1,3.476.594,4.227,4.227,0,0,1,1.781,1.569,4.4,4.4,0,0,1,.594,2.332,3.763,3.763,0,0,1-2.629,3.646,5.042,5.042,0,0,1,3.01,1.526A4.639,4.639,0,0,1,49.264-7.46,4.729,4.729,0,0,1,48.5-5.086a5.177,5.177,0,0,1-1.993,1.7,7.068,7.068,0,0,1-3.264.678H37.308V-20.094Zm6.953,6.7a2.775,2.775,0,0,0,.848-2.035q0-2.544-3.222-2.544h-2.12v5.257h1.611A4.694,4.694,0,0,0,44.346-13.4ZM46.3-6.273A2.542,2.542,0,0,0,46.72-7.63,3.325,3.325,0,0,0,46.211-9.2a2.65,2.65,0,0,0-1.314-.975,7.338,7.338,0,0,0-2.756-.254H39.852v5.511h2.459a10.359,10.359,0,0,0,2.713-.254A4.162,4.162,0,0,0,46.3-6.273ZM0,1.358H26.285V-23.91H0ZM7.97-20.094h4.579a8.609,8.609,0,0,1,3.434.551,3.855,3.855,0,0,1,1.823,1.569,5.3,5.3,0,0,1,.678,2.374,4.078,4.078,0,0,1-2.713,3.731,5.246,5.246,0,0,1,3.052,1.526,4.083,4.083,0,0,1,1.1,2.883A4.331,4.331,0,0,1,19.248-5a4.868,4.868,0,0,1-1.993,1.653,7.693,7.693,0,0,1-3.349.636H7.97Zm7.038,6.7a2.6,2.6,0,0,0,.848-2.035q0-2.544-3.222-2.544h-2.12v5.257h1.7A4.518,4.518,0,0,0,15.008-13.4Zm1.95,7.207A3.366,3.366,0,0,0,17.3-7.715a2.051,2.051,0,0,0-.424-1.357,2.693,2.693,0,0,0-1.272-1.06,8.838,8.838,0,0,0-2.8-.3H10.514v5.511h2.459a7.84,7.84,0,0,0,2.756-.339A2.8,2.8,0,0,0,16.958-6.189Zm0,0" transform="translate(1843 3381.91)" fill="#b6c5cb"/>
    <path id="e9b8" d="M0-18.45H6.961a3.471,3.471,0,0,1,2.362.829,3.655,3.655,0,0,1,1.2,2.154,3.541,3.541,0,0,1-.373,2.444,2.894,2.894,0,0,1-1.782,1.45l-.166.083a3.16,3.16,0,0,1,2.569,2.735,3.94,3.94,0,0,1-.58,3.107A3.555,3.555,0,0,1,7.458-4.2,11.431,11.431,0,0,1,5.8-4.114H0Zm3.149,11.6.083.083h2.9a1.876,1.876,0,0,0,1.16-.5,1.657,1.657,0,0,0,.456-1.119A1.388,1.388,0,0,0,7.375-9.5a2.305,2.305,0,0,0-1.16-.58H3.149Zm-.083-5.966H6.215a1.324,1.324,0,0,0,1.2-.994,1.554,1.554,0,0,0-.249-1.409,1.454,1.454,0,0,0-1.2-.58h-2.9ZM55.6-3.866a10.35,10.35,0,0,0-1.077-.166,5.031,5.031,0,0,1-3.149-2.113,5.3,5.3,0,0,1-.829-3.687,5.069,5.069,0,0,1,3.48-4.64,5.364,5.364,0,0,1,4.516.331,5.122,5.122,0,0,1,2.527,4.06l.083,1.657H53.365a2.382,2.382,0,0,0,1.574,1.989,4.049,4.049,0,0,0,3.977-.5l.166-.083a.073.073,0,0,1,.083-.083l1.243,1.823-1.16.746a8.1,8.1,0,0,1-2.4.663H55.6Zm2.817-6.463a1.732,1.732,0,0,0-.746-1.616,3.22,3.22,0,0,0-1.989-.621,2.839,2.839,0,0,0-1.657.746,1.714,1.714,0,0,0-.663,1.492Zm8.369,6.463-.663-.083-.663-.166a4.96,4.96,0,0,1-2.61-1.657,4.783,4.783,0,0,1-1.119-2.9,5.314,5.314,0,0,1,1.989-5.055A5.536,5.536,0,0,1,66.871-14.8a5.048,5.048,0,0,1,3.232.912,5.143,5.143,0,0,1,1.989,3.315,2.676,2.676,0,0,1,.166.994v1.16H64.551a2.25,2.25,0,0,0,.663,1.409,3.283,3.283,0,0,0,3.066.829A3.679,3.679,0,0,0,70.269-7.1l1.243,1.823-.912.663a7.712,7.712,0,0,1-2.569.746H66.789Zm-2.237-6.463h5.055a1.771,1.771,0,0,0-.7-1.574,2.8,2.8,0,0,0-1.864-.663,2.556,2.556,0,0,0-1.823.7A1.817,1.817,0,0,0,64.551-10.329ZM15.661-3.866a8.268,8.268,0,0,0-.994-.166A4.06,4.06,0,0,1,12.305-5.44a4.085,4.085,0,0,1-.87-2.652v-6.381H14.17v6.049a1.968,1.968,0,0,0,1.077,1.989,2.291,2.291,0,0,0,2.569-.249,2.117,2.117,0,0,0,.829-1.74v-6.049H21.3v6.3A4.311,4.311,0,0,1,20.26-5.192a4.086,4.086,0,0,1-2.776,1.326l-.414.083ZM41.6-4.114V-18.45h9.944v2.237q.083.414-.331.414H44.664v2.983H49.47a.366.366,0,0,1,.414.414v2.237h-5.22v6.049Zm31.323,0V-14.141q0-.331.083-.373a1.212,1.212,0,0,1,.414-.041h2.237q1.326,0,2.237.083a4.922,4.922,0,0,1,4.64,3.232A5.374,5.374,0,0,1,82.7-8.009a4.768,4.768,0,0,1-1.657,2.652,5.443,5.443,0,0,1-3.315,1.243Zm2.652-2.237h1.492a3.212,3.212,0,0,0,2.154-.7,2.757,2.757,0,0,0,.912-2.03,2.742,2.742,0,0,0-.29-1.823,2.5,2.5,0,0,0-1.284-1.16,3.819,3.819,0,0,0-1.492-.249H75.572Zm-48.724-5.8h-4.64v-2.32H30.66v1.326a1.356,1.356,0,0,1-.414.994L25.854-6.518H30.66v2.4H22.208V-6.1a.854.854,0,0,1,.166-.331l4.309-5.386Zm4.558,0v-2.072l.083-.249h8.369v1.823a.854.854,0,0,1-.166.331l-4.558,5.8h4.475a.293.293,0,0,1,.331.331v2.072H31.488V-6.1a.636.636,0,0,1,.083-.249l4.558-5.8Zm0,0" transform="translate(2819 3381.45)" fill="#b6c5cb"/>
    <path id="e9da" d="M7.719-20.4h4.447l.5.168a5.442,5.442,0,0,1,2.853,2.853q.252.671.42,1.091l.168.5a2.523,2.523,0,0,0,.42-.084l.5-.168-.168-5.706H0v.671l.587.084a2.062,2.062,0,0,1,1.259.42,2.281,2.281,0,0,1,.923,1.51A61.7,61.7,0,0,1,3.1-10.419q-.084,3.86-.168,5.16A8.461,8.461,0,0,1,2.6-3.2a1.936,1.936,0,0,1-1.594,1.51l-.923.168v.671h10.74v-.671a5.234,5.234,0,0,1-.965-.168,5.539,5.539,0,0,1-.881-.252A2.054,2.054,0,0,1,8.1-3.036a7.521,7.521,0,0,1-.378-2.182Q7.635-6.224,7.551-8.49a12.214,12.214,0,0,1,0-2.307,8.709,8.709,0,0,1,1.384.042q1.3.084,1.552.084,1.259.336,1.762,2.265l.168.587h.671v-6.964h-.671a.074.074,0,0,0-.084.084,4.116,4.116,0,0,1-.461,1.51,1.87,1.87,0,0,1-1.384,1.175,12.221,12.221,0,0,1-1.594.168,4.373,4.373,0,0,1-1.342,0,38.814,38.814,0,0,1,0-4.111q.084-4.027.168-4.363Zm19.634,5.957a6.755,6.755,0,0,0-4.867-1.762A7.148,7.148,0,0,0,17.2-14.2a8.228,8.228,0,0,0-2.182,5.957,8.014,8.014,0,0,0,2.014,5.789A7.186,7.186,0,0,0,19.55-.854q.336.084,1.594.336H22.4A5.481,5.481,0,0,0,24-.686a7.281,7.281,0,0,0,2.685-1.175A7.727,7.727,0,0,0,29.619-8.07,7.817,7.817,0,0,0,27.353-14.447Zm-3.1,11.663A1.964,1.964,0,0,1,22.99-1.609a1.717,1.717,0,0,1-2.1-.755,8.941,8.941,0,0,1-1.259-3.608q-.084-.839-.084-2.559a15.763,15.763,0,0,1,.168-2.643q.42-4.027,2.433-4.027a1.848,1.848,0,0,1,1.342.587q1.594,1.678,1.594,6.461A12.386,12.386,0,0,1,24.249-2.784ZM83.57-7.315A3.752,3.752,0,0,0,82.4-8.7a12.511,12.511,0,0,0-2.349-1.217,7.146,7.146,0,0,1-2.937-1.762,2.03,2.03,0,0,1-.42-1.342,1.956,1.956,0,0,1,.881-1.8,2.658,2.658,0,0,1,2.1-.252,3.352,3.352,0,0,1,2.056,1.72,9.276,9.276,0,0,1,.839,1.846q0,.084.252,0l.252-.084v-3.86l-.252-.084a13.162,13.162,0,0,0-1.93-.5,24.207,24.207,0,0,0-4.027,0,5.215,5.215,0,0,0-3.44,2.685A4.809,4.809,0,0,0,73-11.342,3.629,3.629,0,0,0,74-8.657a5.931,5.931,0,0,0,2.6,1.594,10.177,10.177,0,0,1,2.6,1.259,1.527,1.527,0,0,1,.5.671l.252.42v.629a2.158,2.158,0,0,1-.252.965,2.183,2.183,0,0,1-2.517,1.342A3.411,3.411,0,0,1,75.1-2.7a7.46,7.46,0,0,1-1.678-2.6,1.146,1.146,0,0,0-.252-.461.525.525,0,0,0-.336.042h-.168l.084,3.944q0,.42.126.5a6.927,6.927,0,0,0,1.175.336A13.858,13.858,0,0,0,76.018-.6a9.592,9.592,0,0,0,3.1,0,6.047,6.047,0,0,0,3.146-1.259,4.47,4.47,0,0,0,1.552-2.6A4.432,4.432,0,0,0,83.57-7.315ZM67.8-15.789a5.462,5.462,0,0,0-2.265-.42,6.69,6.69,0,0,0-5.034,2.1,8.172,8.172,0,0,0-2.1,4.027,13.306,13.306,0,0,0-.084,1.846A13.307,13.307,0,0,0,58.4-6.392a7.4,7.4,0,0,0,2.056,3.86A7.224,7.224,0,0,0,64.272-.6a6.781,6.781,0,0,0,2.6,0,6.728,6.728,0,0,0,3.692-1.762q.755-.755.671-.965t-.21-.21a1.32,1.32,0,0,0-.461.168,3.439,3.439,0,0,1-1.049.545,8.255,8.255,0,0,1-1.217.21,5.416,5.416,0,0,1-3.021-.5,4.646,4.646,0,0,1-1.049-.755,3.592,3.592,0,0,1-.8-1.007,8.426,8.426,0,0,1-.839-3.44q-.084-.671,0-.713t4.531-.042h4.447v-.252a9.84,9.84,0,0,0-.252-2.014Q70.564-14.866,67.8-15.789Zm-.755,5.454H66.034l-3.272.084V-10.5a5.049,5.049,0,0,1,.084-.755,8.737,8.737,0,0,1,.965-2.895A1.77,1.77,0,0,1,65.278-15.2q1.51,0,1.762,4.111ZM41.869-16.041a2.789,2.789,0,0,0-1.342-.168h-.168q-2.349.084-3.776,2.769-.336.587-.42.587a6.328,6.328,0,0,1,0-1.678v-1.678l-2.769.587q-3.44.671-3.482.713a.437.437,0,0,0-.042.252v.21l.587.084a1.658,1.658,0,0,1,1.049.587,2.852,2.852,0,0,1,.378,1.342,45.325,45.325,0,0,1,.126,5.076,34.016,34.016,0,0,1-.21,4.489,1.37,1.37,0,0,1-.671,1.007l-.755.252-.5.084v.671h8.81v-.671l-.42-.084a7.759,7.759,0,0,1-1.133-.168,1.035,1.035,0,0,1-.545-.461,3.511,3.511,0,0,1-.336-1.51q-.084-1.133-.084-4.573v-3.44l.084-.168a2.334,2.334,0,0,1,1.175-.587,4.354,4.354,0,0,1,2.769.42q.5.252.5.168l1.426-3.86Q42.2-15.873,41.869-16.041Zm14.1,3.188a5.774,5.774,0,0,0-1.594-1.972,5.261,5.261,0,0,0-2.182-1.049,4.637,4.637,0,0,0-1.972-.084,8.841,8.841,0,0,0-1.888.5,3.707,3.707,0,0,1-.671.252,27.83,27.83,0,0,1-.084-3.524l.084-3.524-6.209,1.175a.2.2,0,0,0-.126.252,1.147,1.147,0,0,1,.042.252l.252.084a3.07,3.07,0,0,1,.755.168,1.8,1.8,0,0,1,.42.336,2.725,2.725,0,0,1,.587,1.762q.084.587.084,7.551T43.379-2.28v1.175l.587.084a18.159,18.159,0,0,0,6.209.5,7.929,7.929,0,0,0,4.363-2.014,8.811,8.811,0,0,0,2.349-6.712A8.4,8.4,0,0,0,55.965-12.853ZM52.189-6.811A7.541,7.541,0,0,1,50.343-2.2a1.971,1.971,0,0,1-1.175.587,2.513,2.513,0,0,1-.923,0q-.336,0-.378-.168t-.126-4.069q-.084-3.9,0-6.083v-2.182l.42-.084a2.464,2.464,0,0,1,.923-.168,2.234,2.234,0,0,1,1.007.252q1.594.755,2.1,3.692a13.558,13.558,0,0,1,.084,1.762A15.725,15.725,0,0,1,52.189-6.811Zm0,0" transform="translate(2233 3382.25)" fill="#b6c5cb"/>
    <path id="ea02" d="M63.094-10.187l-.084-.084L66.8-16.665H64.524l-3.449,5.721-.252.5v.252l.168.421,3.87,6.73h2.187ZM58.636-22.3V-3.036h1.935V-22.469H58.636Zm25.069,5.8a3.266,3.266,0,0,0-.421-.168l-.337-.084a3.9,3.9,0,0,0-.757-.084h-.337l-1.094.252-.673.252-.925.757-.673.925-.421,1.262L77.985-2.952h1.935v-9.759a1.92,1.92,0,0,1,.673-1.514l.252-.252a1.85,1.85,0,0,1,.757-.337h2.44l.084-1.514Zm-8.076,3.365V-13.3l-.252-.925-.252-.5-.841-1.094-1.43-.841-1.178-.168h-.421l-.841.252-1.178.589-.673.673-.673,1.262-.168.841v6.73l.252,1.094.337.673v.084l.421.673.421.421.757.421.841.252h1.094l2.44-.337-.168-1.514L71.591-4.8,71-4.887l-.589-.421-.252-.252-.252-.5-.084-.421V-8.841h4.8a1.061,1.061,0,0,0,.715-.252.842.842,0,0,0,.294-.673Zm-1.935.252v2.1h-3.87v-2.1a1.909,1.909,0,0,1,.379-1.178,1.8,1.8,0,0,1,.967-.673,1.864,1.864,0,0,1,.589-.084H72.1l.421.168.5.337.336.337.168.336Zm-17.33-.168v-.168l-.168-.925-.337-.589-.421-.757-.421-.337L54.6-16.16l-1.01-.5-1.178-.252-.252.084h-.337l-.589.168h-.084l-1.346.841-.421.5-.337.5-.337.925a2.47,2.47,0,0,0-.168.925l.084,6.814.252,1.01.421.673.589.673.589.421.925.421,1.094.168,1.178-.252.841-.421.841-.673.673-1.094.337-1.346-1.935-.084-.084.168a.936.936,0,0,1-.084.421,1.831,1.831,0,0,1-.673.883A1.909,1.909,0,0,1,52.41-4.8l-.337-.084L51.4-5.139,50.98-5.56l-.337-.589-.168-.589v-6.225a1.914,1.914,0,0,1,.757-1.43,1.614,1.614,0,0,1,1.178-.5l.337.084.757.252.421.337h0l.252.337.168.5v.673l.168.084,1.851-.084-.084-.421Zm-10.432.168v-.084l-.084-.421-.5-1.262-.673-1.01-.5-.421-.757-.421-1.178-.337H41.39l-.673.084-1.346.421h-.084l.084,1.514,2.692-.168h.673l.5.252.421.5.252.589v2.1l-2.356-.252-1.767.589-1.01.925-.673,1.514L38.025-6.4l.168.841.168.337.589,1.01,1.01.841.925.421,1.094.168a3.572,3.572,0,0,0,2.187-.757,3.428,3.428,0,0,0,1.178-1.346,4.08,4.08,0,0,0,.421-1.851v-5.973Q45.933-12.795,45.933-12.879ZM44-9.851v3.113a1.356,1.356,0,0,1-.168.589,2.047,2.047,0,0,1-.589.883,1.867,1.867,0,0,1-1.01.463h-.168l-.589-.084L40.8-5.308l-.421-.5L40.128-6.4V-8.168a1.881,1.881,0,0,1,.547-1.388,1.881,1.881,0,0,1,1.388-.547h1.851v.252Zm-8.244-2.944-.084-.168L35.5-14.141l-.421-.925-.673-.757-.673-.5-.673-.337-.589-.168H31.295l-1.346.252v-5.889H28.014V-3.036h1.935V-14.646l2.356.084.673.252.421.337v.084l.337.5.084.337v10.1h2.019v-9.759Zm-10.179-.336v-.5l-.337-.925-.589-1.094h-.084l-.421-.421-.757-.589-1.767-.5H20.527l-1.346.589-.925.757-.673.925-.421.925a6.131,6.131,0,0,0-.084,1.01V-6.57l.168.757.5,1.094.084.252.673.757.673.421.925.337,1.178.084L24.4-3.289,24.228-5.9H21.2l-.589-.252L20.358-6.4l-.252-.5V-8.42H24.06a1.409,1.409,0,0,0,1.094-.463,1.627,1.627,0,0,0,.421-1.136v-3.113Zm-3.029,1.683H20.19v-1.514a1.046,1.046,0,0,1,.337-.757,1.141,1.141,0,0,1,.841-.337l.5.084.421.421.252.589ZM15.9-22.469l-.084-.084-.168-.084-1.6-.252-1.01.252-.841.421-.757.589-.673.841-.589,1.346-.084.5L10.011.245,13.124.076V-11.112h2.356v-3.113H13.208v-4.122a1.141,1.141,0,0,1,.337-.841,1.141,1.141,0,0,1,.841-.337h1.43ZM0-22.385V-3.036H3.113v-19.1L.168-22.3Zm8.328,2.692-.084-.421-.421-.673-.757-.337-.5-.084-.5.084-.252.084-.589.421-.337.589L4.8-19.1l.252.5.5.589.337.168.673.168.421-.084.589-.252.421-.421.337-1.01v-.168ZM5.048-16.917V-3.036H8.16v-13.8L5.048-17Zm0,0" transform="translate(2624 3381.89)" fill="#b6c5cb"/>
    <path id="ea0d" d="M8.114-10.29,5.156-18.15H0v14.2H3.719v-9.466L7.353-3.951H8.959l3.55-9.466v9.466h3.634v-14.2H11.072ZM22.06-14.516a6.982,6.982,0,0,0-4.733,1.606l1.268,2.2a4.269,4.269,0,0,1,2.874-1.1,2.366,2.366,0,0,1,1.479.423,1.323,1.323,0,0,1,.549,1.1v1.014a3.12,3.12,0,0,0-1.268-.845,4.963,4.963,0,0,0-1.859-.338A3.615,3.615,0,0,0,18-9.7,2.868,2.868,0,0,0,16.819-7.2,3.337,3.337,0,0,0,18-4.542a3.835,3.835,0,0,0,2.367.761,5.065,5.065,0,0,0,1.817-.338,2.758,2.758,0,0,0,1.31-.93v1.1h3.3v-6.508a3.658,3.658,0,0,0-1.437-3.212,6.008,6.008,0,0,0-3.381-.845ZM23.5-6.655a1.974,1.974,0,0,1-1.775.761,2.255,2.255,0,0,1-1.226-.3.982.982,0,0,1-.465-.887.982.982,0,0,1,.465-.887,2.255,2.255,0,0,1,1.226-.3,2.084,2.084,0,0,1,1.775.676ZM30.6-11.3q0-.254.338-.465a1.748,1.748,0,0,1,.93-.211,4.522,4.522,0,0,1,1.69.338,5.025,5.025,0,0,1,1.352.761l1.268-2.282a7.136,7.136,0,0,0-4.311-1.352,4.91,4.91,0,0,0-3.212.972,3,3,0,0,0-1.183,2.409,2.905,2.905,0,0,0,.549,1.817A3.178,3.178,0,0,0,29.5-8.261a9.158,9.158,0,0,0,1.775.423l1.521.254q.592.254.592.507,0,.761-1.352.761a5.362,5.362,0,0,1-1.986-.423A5.912,5.912,0,0,1,28.4-7.67L27.046-5.388A5.863,5.863,0,0,0,29.2-4.2a8.622,8.622,0,0,0,2.662.423,5.555,5.555,0,0,0,3.423-.93,2.929,2.929,0,0,0,1.226-2.451,2.905,2.905,0,0,0-.549-1.817,3.8,3.8,0,0,0-1.479-1.141,9.159,9.159,0,0,0-1.775-.423L31.188-10.8Q30.6-10.966,30.6-11.3Zm13.185-3.212a4.688,4.688,0,0,0-3.55,1.521V-18.15h-3.3v14.2h3.3v-6.677a2.66,2.66,0,0,1,1.944-1.014,1.494,1.494,0,0,1,1.69,1.69v6h3.3V-11.3a3.2,3.2,0,0,0-.845-2.367A3.444,3.444,0,0,0,43.781-14.516Zm9.044,0a6.86,6.86,0,0,0-4.649,1.606l1.268,2.2a4.166,4.166,0,0,1,2.789-1.1,2.333,2.333,0,0,1,1.521.423,1.363,1.363,0,0,1,.507,1.1v1.014a2.48,2.48,0,0,0-1.226-.845,5.3,5.3,0,0,0-1.9-.338,3.486,3.486,0,0,0-2.282.761A2.868,2.868,0,0,0,47.669-7.2a3.453,3.453,0,0,0,1.1,2.662,3.835,3.835,0,0,0,2.367.761,5.3,5.3,0,0,0,1.9-.338,2.264,2.264,0,0,0,1.226-.93v1.1h3.3v-6.508Q57.558-14.516,52.825-14.516Zm1.437,7.86a1.244,1.244,0,0,1-.676.549,2.941,2.941,0,0,1-1.141.211,2,2,0,0,1-1.1-.3.982.982,0,0,1-.465-.887.982.982,0,0,1,.465-.887,2,2,0,0,1,1.1-.3,3.6,3.6,0,0,1,1.141.169,1.089,1.089,0,0,1,.676.507Zm10.819-7.86a3.616,3.616,0,0,0-3.043,1.437V-18.15h-3.3v14.2h3.3V-5.218a3.66,3.66,0,0,0,3.085,1.437,4.143,4.143,0,0,0,3.254-1.437,5.732,5.732,0,0,0,1.268-3.93,5.732,5.732,0,0,0-1.268-3.93A4.19,4.19,0,0,0,65.08-14.516Zm-1.014,7.86a2.693,2.693,0,0,1-1.141-.254,2.4,2.4,0,0,1-.887-.676v-3.127a2.4,2.4,0,0,1,.887-.676,2.693,2.693,0,0,1,1.141-.254,2.058,2.058,0,0,1,1.564.676,2.55,2.55,0,0,1,.634,1.817,2.55,2.55,0,0,1-.634,1.817,2.156,2.156,0,0,1-1.648.676Zm6,2.7h3.3v-14.2h-3.3Zm14.453-4.9a5.721,5.721,0,0,0-1.479-4.1,5,5,0,0,0-3.8-1.564,5.355,5.355,0,0,0-3.888,1.521,5.088,5.088,0,0,0-1.564,3.8,5.087,5.087,0,0,0,1.606,3.93,5.643,5.643,0,0,0,3.972,1.479,8.878,8.878,0,0,0,2.451-.338,4.206,4.206,0,0,0,1.859-1.014L82.238-7.247a4.552,4.552,0,0,1-1.183.634,3.653,3.653,0,0,1-1.268.3,2.874,2.874,0,0,1-1.733-.465,2.483,2.483,0,0,1-.887-1.141H84.52ZM77.167-10.29a1.807,1.807,0,0,1,.592-1.141A2.185,2.185,0,0,1,79.28-11.9a2.066,2.066,0,0,1,1.521.507,1.936,1.936,0,0,1,.592,1.1Zm0,0" transform="translate(2428 3381.15)" fill="#b6c5cb"/>
    <path id="ea1f" d="M83.627-22.74h-3.6L77.69-16.97,75.6-22.74H72.087l3.68,10.453L71.418-1.5l3.512.418,2.509-6.356L79.864-.5l3.763.5L79.362-12.2ZM65.062-2q.5.084,3.68.335V-22.74h-3.68ZM41.145-2.837h3.6v-7.777h4.265v-3.178H44.741v-5.6h4.934V-22.74h-8.53ZM27.513-19.395h3.261V-2.669l3.6-.084V-19.395h3.345V-22.74h-10.2ZM8.2-9.778,3.6-22.74H0V.007Q1.84-.244,3.429-.411V-12.956L7.61-1l3.93-.335V-22.74H8.2Zm7.276,4.767V-1.75Q19.4-2.084,24-2.335V-5.6q-2.425.084-4.934.335v-5.352h4.265v-3.178H19.067v-5.6H24V-22.74h-8.53ZM56.7-22.74H53.187V-2.669q4.1.167,8.53.418V-5.513Q59.459-5.68,56.7-5.764Zm0,0" transform="translate(2039 3381.74)" fill="#b6c5cb"/>
  </g>
</svg>
